<svg version="1.1" viewBox="0.0 0.0 96.0 96.0" fill="none" stroke="none" stroke-linecap="square" stroke-miterlimit="10" xmlns:xlink="http://www.w3.org/1999/xlink" xmlns="http://www.w3.org/2000/svg"><clipPath id="p.0"><path d="m0 0l96.0 0l0 96.0l-96.0 0l0 -96.0z" clip-rule="nonzero"/></clipPath><g clip-path="url(#p.0)"><path fill="#000000" fill-opacity="0.0" d="m0 0l96.0 0l0 96.0l-96.0 0z" fill-rule="evenodd"/><path fill="#000000" fill-opacity="0.0" d="m28.044106 63.97129l3.9933395 -15.973354l31.92052 0l3.9933434 15.973354z" fill-rule="evenodd"/><path stroke="#ffffff" stroke-width="3.0" stroke-linejoin="round" stroke-linecap="butt" d="m28.044106 63.97129l3.9933395 -15.973354l31.92052 0l3.9933434 15.973354z" fill-rule="evenodd"/><path fill="#000000" fill-opacity="0.0" d="m32.024353 47.997936l3.9933357 -15.973354l23.960033 0l3.9933395 15.973354z" fill-rule="evenodd"/><path stroke="#ffffff" stroke-width="3.0" stroke-linejoin="round" stroke-linecap="butt" d="m32.024353 47.997936l3.9933357 -15.973354l23.960033 0l3.9933395 15.973354z" fill-rule="evenodd"/><path fill="#000000" fill-opacity="0.0" d="m36.030785 32.024582l3.9933357 -15.973354l15.94717 0l3.9933395 15.973354z" fill-rule="evenodd"/><path stroke="#ffffff" stroke-width="3.0" stroke-linejoin="round" stroke-linecap="butt" d="m36.030785 32.024582l3.9933357 -15.973354l15.94717 0l3.9933395 15.973354z" fill-rule="evenodd"/><path fill="#000000" fill-opacity="0.0" d="m13.537158 79.94464l3.9933386 -15.973351l60.934418 0l3.9933395 15.973351z" fill-rule="evenodd"/><path stroke="#ffffff" stroke-width="3.0" stroke-linejoin="round" stroke-linecap="butt" d="m13.537158 79.94464l3.9933386 -15.973351l60.934418 0l3.9933395 15.973351z" fill-rule="evenodd"/></g></svg>