<svg version="1.1" viewBox="0.0 0.0 96.0 96.0" fill="none" stroke="none" stroke-linecap="square" stroke-miterlimit="10" xmlns:xlink="http://www.w3.org/1999/xlink" xmlns="http://www.w3.org/2000/svg"><clipPath id="p.0"><path d="m0 0l96.0 0l0 96.0l-96.0 0l0 -96.0z" clip-rule="nonzero"/></clipPath><g clip-path="url(#p.0)"><path fill="#000000" fill-opacity="0.0" d="m0 0l96.0 0l0 96.0l-96.0 0z" fill-rule="evenodd"/><path fill="#000000" fill-opacity="0.0" d="m16.783558 29.817287l31.25388 18.120274l31.294922 -18.120274l-31.25388 -18.120272z" fill-rule="evenodd"/><path stroke="#ffffff" stroke-width="3.0" stroke-linejoin="round" stroke-linecap="butt" d="m16.783558 29.817287l31.25388 18.120274l31.294922 -18.120274l-31.25388 -18.120272z" fill-rule="evenodd"/><path fill="#000000" fill-opacity="0.0" d="m48.05188 83.85041l0.041042328 -36.13794l-31.315441 -17.997145l-0.041042328 36.13794z" fill-rule="evenodd"/><path stroke="#ffffff" stroke-width="3.0" stroke-linejoin="round" stroke-linecap="butt" d="m48.05188 83.85041l0.041042328 -36.13794l-31.315441 -17.997145l-0.041042328 36.13794z" fill-rule="evenodd"/><path fill="#000000" fill-opacity="0.0" d="m79.13842 29.714521l-31.418049 17.976622l0.10260391 36.199505l31.418053 -17.976624z" fill-rule="evenodd"/><path stroke="#ffffff" stroke-width="3.0" stroke-linejoin="round" stroke-linecap="butt" d="m79.13842 29.714521l-31.418049 17.976622l0.10260391 36.199505l31.418053 -17.976624z" fill-rule="evenodd"/></g></svg>