<svg version="1.1" viewBox="0.0 0.0 96.0 96.0" fill="none" stroke="none" stroke-linecap="square" stroke-miterlimit="10" xmlns:xlink="http://www.w3.org/1999/xlink" xmlns="http://www.w3.org/2000/svg"><clipPath id="p.0"><path d="m0 0l96.0 0l0 96.0l-96.0 0l0 -96.0z" clip-rule="nonzero"/></clipPath><g clip-path="url(#p.0)"><path fill="#000000" fill-opacity="0.0" d="m0 0l96.0 0l0 96.0l-96.0 0z" fill-rule="evenodd"/><path fill="#000000" fill-opacity="0.0" d="m28.322834 -18.08924l48.000004 0.94488144" fill-rule="evenodd"/><path stroke="#000000" stroke-width="1.0" stroke-linejoin="round" stroke-linecap="butt" d="m28.322834 -18.08924l48.000004 0.94488144" fill-rule="evenodd"/><path fill="none" d="m70.52313 30.458162l-46.362206 12.440947l1.2598419 4.629921l46.362206 -12.440945z" fill-rule="evenodd"/><path fill="none" d="m24.0 54.620735l48.0 0l0 4.787403l-48.0 0z" fill-rule="evenodd"/><path fill="#ffffff" d="m29.68659 25.589916l40.72441 40.724407l-2.0472488 2.0472488l-40.724407 -40.72441z" fill-rule="evenodd"/><path fill="#ffffff" d="m27.636244 27.63843l40.72441 40.72441l-2.0472488 2.0472412l-40.72441 -40.724403z" fill-rule="evenodd"/><path fill="#ffffff" d="m70.41008 29.68659l-40.724403 40.72441l-2.047245 -2.0472488l40.72441 -40.724407z" fill-rule="evenodd"/><path fill="#ffffff" d="m68.36157 27.636244l-40.72441 40.72441l-2.047245 -2.0472488l40.724407 -40.72441z" fill-rule="evenodd"/></g></svg>